<?xml version="1.0" encoding="UTF-8"?>
<svg width="395px" height="132px" viewBox="0 0 395 132" version="1.1" xmlns="http://www.w3.org/2000/svg" xmlns:xlink="http://www.w3.org/1999/xlink">
    <!-- Generator: Sketch 57.1 (83088) - https://sketch.com -->
    <title>logo / wordmark extruded / purple</title>
    <desc>Created with Sketch.</desc>
    <g id="logo-/-wordmark-extruded-/-purple" stroke="none" stroke-width="1" fill="none" fill-rule="evenodd">
        <g id="logo-/-wordmark-extuded">
            <path d="M38.105,0 L55.596,24.248 L162.807,24.248 L162.807,0 L239.014,0 L239.014,24.248 L263.261,24.248 L263.261,34.639 L273.652,24.248 L304.73,24.248 L322.221,0 L360.251,0 L360.251,24.248 L377.571,24.248 L394.892,41.567 L394.892,100.454 L363.715,131.63 L277.117,131.63 L263.261,117.775 L263.261,131.63 L218.23,131.63 L204.374,117.775 L204.374,131.63 L110.848,131.63 L96.991,117.775 L96.991,131.63 L48.496,131.63 L0,83.136 L0,0 L38.105,0 Z" id="Combined-Shape" fill="#9146FF"></path>
            <path d="M34.6398,6.9284 L34.6398,31.1754 L58.8878,31.1754 L58.8878,58.8874 L34.6398,58.8874 L34.6398,65.8154 L58.8878,65.8154 L58.8878,93.5274 L20.7838,93.5274 L6.9288,79.6724 L6.9288,6.9284 L34.6398,6.9284 Z M93.5278,31.1755 L93.5278,65.8155 L100.4548,65.8155 L100.4548,31.1755 L128.1658,31.1755 L128.1658,65.8155 L135.0938,65.8155 L135.0938,31.1755 L162.8068,31.1755 L162.8068,93.5275 L79.6708,93.5275 L65.8158,79.6715 L65.8158,31.1755 L93.5278,31.1755 Z M232.0851,6.9284 L232.0851,31.1754 L256.3331,31.1754 L256.3331,58.8874 L232.0851,58.8874 L232.0851,65.8154 L256.3331,65.8154 L256.3331,93.5274 L218.2291,93.5274 L204.3741,79.6724 L204.3741,6.9284 L232.0851,6.9284 Z M353.323,6.9275 L353.323,31.1755 L374.108,31.1755 L387.964,45.0315 L387.964,93.5275 L360.252,93.5275 L360.252,58.8865 L353.323,58.8865 L353.323,93.5275 L325.612,93.5275 L325.612,6.9275 L353.323,6.9275 Z M197.4453,31.1764 L197.4453,93.5274 L169.7333,93.5274 L169.7333,31.1764 L197.4453,31.1764 Z M318.6847,31.1754 L318.6847,58.8874 L290.9727,58.8874 L290.9727,65.8154 L318.6847,65.8154 L318.6847,93.5274 L277.1167,93.5274 L263.2617,79.6724 L263.2617,45.0314 L277.1167,31.1754 L318.6847,31.1754 Z M197.4453,6.9274 L197.4453,24.2474 L169.7333,24.2474 L169.7333,6.9274 L197.4453,6.9274 Z" id="Combined-Shape" fill="#FFFFFF"></path>
        </g>
    </g>
</svg>